<mxfile host="app.diagrams.net" modified="2023-07-30T07:49:36.012Z" agent="Mozilla/5.0 (Windows NT 10.0; Win64; x64) AppleWebKit/537.36 (KHTML, like Gecko) Chrome/115.0.0.0 Safari/537.36" etag="fjUXXAEMEwWOYcAeP3qu" version="21.6.6" type="google">
  <diagram name="Page-1" id="UpQfXl-DkcGahVSdvex6">
    <mxGraphModel grid="1" page="1" gridSize="10" guides="1" tooltips="1" connect="1" arrows="1" fold="1" pageScale="1" pageWidth="3300" pageHeight="2339" background="#ffffff" math="0" shadow="0">
      <root>
        <mxCell id="0" />
        <mxCell id="1" parent="0" />
        <mxCell id="PrwHGtlNAWb-pKhYX6BM-1" value="MySQL" style="shape=cylinder3;whiteSpace=wrap;html=1;boundedLbl=1;backgroundOutline=1;size=15;strokeColor=#FFFF33;fontColor=#ffffff;fillColor=#d80073;" vertex="1" parent="1">
          <mxGeometry x="1597" y="730" width="100" height="150" as="geometry" />
        </mxCell>
        <mxCell id="llS7omPs3QPFBOIF4OHb-1" value="&lt;font style=&quot;font-size: 20px;&quot;&gt;Controller&lt;/font&gt;" style="rounded=1;whiteSpace=wrap;html=1;fillColor=#008a00;fontColor=#ffffff;strokeColor=#005700;" vertex="1" parent="1">
          <mxGeometry x="1537" y="472.5" width="190" height="65" as="geometry" />
        </mxCell>
        <mxCell id="llS7omPs3QPFBOIF4OHb-2" value="" style="endArrow=classic;html=1;rounded=0;fillColor=#60a917;strokeColor=#2D7600;strokeWidth=2;" edge="1" parent="1">
          <mxGeometry width="50" height="50" relative="1" as="geometry">
            <mxPoint x="600" y="429.5" as="sourcePoint" />
            <mxPoint x="750" y="429.5" as="targetPoint" />
          </mxGeometry>
        </mxCell>
        <mxCell id="llS7omPs3QPFBOIF4OHb-3" value="" style="endArrow=classic;html=1;rounded=0;fillColor=#1ba1e2;strokeColor=#006EAF;strokeWidth=2;" edge="1" parent="1">
          <mxGeometry width="50" height="50" relative="1" as="geometry">
            <mxPoint x="599" y="490" as="sourcePoint" />
            <mxPoint x="749" y="490.5" as="targetPoint" />
          </mxGeometry>
        </mxCell>
        <mxCell id="llS7omPs3QPFBOIF4OHb-6" value="&lt;font color=&quot;#00331a&quot;&gt;@GetMapping(&quot;/products&quot;)&lt;/font&gt;" style="rounded=1;whiteSpace=wrap;html=1;fillColor=none;fontColor=#ffffff;strokeColor=none;" vertex="1" parent="1">
          <mxGeometry x="589" y="398" width="160" height="30" as="geometry" />
        </mxCell>
        <mxCell id="llS7omPs3QPFBOIF4OHb-13" value="" style="edgeStyle=orthogonalEdgeStyle;rounded=0;orthogonalLoop=1;jettySize=auto;html=1;" edge="1" parent="1" source="llS7omPs3QPFBOIF4OHb-8" target="llS7omPs3QPFBOIF4OHb-6">
          <mxGeometry relative="1" as="geometry" />
        </mxCell>
        <mxCell id="llS7omPs3QPFBOIF4OHb-8" value="&lt;font color=&quot;#00331a&quot;&gt;@PostMapping(&quot;/products&quot;)&lt;/font&gt;" style="rounded=1;whiteSpace=wrap;html=1;fillColor=none;fontColor=#ffffff;strokeColor=none;" vertex="1" parent="1">
          <mxGeometry x="588" y="460" width="160" height="30" as="geometry" />
        </mxCell>
        <mxCell id="llS7omPs3QPFBOIF4OHb-9" value="&lt;font color=&quot;#00331a&quot;&gt;@PutMapping(&quot;/products/{id}&quot;)&lt;/font&gt;" style="rounded=1;whiteSpace=wrap;html=1;fillColor=none;fontColor=#ffffff;strokeColor=none;" vertex="1" parent="1">
          <mxGeometry x="580" y="518.4" width="160" height="30" as="geometry" />
        </mxCell>
        <mxCell id="llS7omPs3QPFBOIF4OHb-11" value="" style="endArrow=classic;html=1;rounded=0;fillColor=#e51400;strokeColor=#B20000;strokeWidth=2;" edge="1" parent="1">
          <mxGeometry width="50" height="50" relative="1" as="geometry">
            <mxPoint x="598" y="600" as="sourcePoint" />
            <mxPoint x="748" y="600" as="targetPoint" />
          </mxGeometry>
        </mxCell>
        <mxCell id="llS7omPs3QPFBOIF4OHb-12" value="" style="endArrow=classic;html=1;rounded=0;fillColor=#60a917;strokeColor=#2D7600;strokeWidth=2;" edge="1" parent="1">
          <mxGeometry width="50" height="50" relative="1" as="geometry">
            <mxPoint x="598" y="550" as="sourcePoint" />
            <mxPoint x="748" y="550" as="targetPoint" />
          </mxGeometry>
        </mxCell>
        <mxCell id="llS7omPs3QPFBOIF4OHb-14" value="&lt;font color=&quot;#00331a&quot;&gt;@DeleteMapping(&quot;/products/{id}&quot;)&lt;/font&gt;" style="rounded=1;whiteSpace=wrap;html=1;fillColor=none;fontColor=#ffffff;strokeColor=none;" vertex="1" parent="1">
          <mxGeometry x="580" y="565.4" width="160" height="30" as="geometry" />
        </mxCell>
        <mxCell id="llS7omPs3QPFBOIF4OHb-15" value="&lt;font style=&quot;font-size: 20px;&quot;&gt;Filter&lt;/font&gt;" style="rounded=1;whiteSpace=wrap;html=1;fillColor=#fa6800;fontColor=default;strokeColor=#C73500;" vertex="1" parent="1">
          <mxGeometry x="794" y="390" width="70" height="230" as="geometry" />
        </mxCell>
        <mxCell id="llS7omPs3QPFBOIF4OHb-17" value="" style="endArrow=block;html=1;rounded=0;fillColor=#60a917;strokeColor=#2D7600;strokeWidth=10;endFill=1;" edge="1" parent="1">
          <mxGeometry width="50" height="50" relative="1" as="geometry">
            <mxPoint x="884" y="504.6" as="sourcePoint" />
            <mxPoint x="974" y="505.4" as="targetPoint" />
          </mxGeometry>
        </mxCell>
        <mxCell id="llS7omPs3QPFBOIF4OHb-18" value="" style="endArrow=block;html=1;rounded=0;fillColor=#60a917;strokeColor=#2D7600;strokeWidth=10;endFill=1;" edge="1" parent="1">
          <mxGeometry width="50" height="50" relative="1" as="geometry">
            <mxPoint x="1390" y="504.5" as="sourcePoint" />
            <mxPoint x="1500" y="504.9" as="targetPoint" />
          </mxGeometry>
        </mxCell>
        <mxCell id="llS7omPs3QPFBOIF4OHb-19" value="&lt;font style=&quot;font-size: 20px;&quot;&gt;Services&lt;/font&gt;" style="rounded=1;whiteSpace=wrap;html=1;fillColor=#b0e3e6;strokeColor=#0e8088;fontColor=#00331A;" vertex="1" parent="1">
          <mxGeometry x="1937" y="472.5" width="170" height="67.5" as="geometry" />
        </mxCell>
        <mxCell id="llS7omPs3QPFBOIF4OHb-20" value="" style="endArrow=block;html=1;rounded=0;fillColor=#60a917;strokeColor=#2D7600;strokeWidth=6;endFill=1;" edge="1" parent="1">
          <mxGeometry width="50" height="50" relative="1" as="geometry">
            <mxPoint x="1747" y="490" as="sourcePoint" />
            <mxPoint x="1927" y="490.4" as="targetPoint" />
          </mxGeometry>
        </mxCell>
        <mxCell id="llS7omPs3QPFBOIF4OHb-21" value="&lt;span style=&quot;font-size: 20px;&quot;&gt;&lt;font color=&quot;#00331a&quot;&gt;Repository&lt;/font&gt;&lt;/span&gt;" style="rounded=1;whiteSpace=wrap;html=1;fillColor=#fad9d5;strokeColor=#ae4132;" vertex="1" parent="1">
          <mxGeometry x="1937" y="772.5" width="170" height="65" as="geometry" />
        </mxCell>
        <mxCell id="llS7omPs3QPFBOIF4OHb-22" value="&lt;font color=&quot;#00331a&quot; style=&quot;font-size: 14px;&quot;&gt;Dependency Injection&lt;/font&gt;" style="rounded=1;whiteSpace=wrap;html=1;fillColor=none;fontColor=#ffffff;strokeColor=none;fontSize=14;fontStyle=1" vertex="1" parent="1">
          <mxGeometry x="1777" y="442.5" width="100" height="30" as="geometry" />
        </mxCell>
        <mxCell id="llS7omPs3QPFBOIF4OHb-24" value="" style="endArrow=block;html=1;rounded=0;fillColor=#60a917;strokeColor=#006666;strokeWidth=6;endFill=1;" edge="1" parent="1">
          <mxGeometry width="50" height="50" relative="1" as="geometry">
            <mxPoint x="2077" y="552.3000000000001" as="sourcePoint" />
            <mxPoint x="2077.4" y="767.7" as="targetPoint" />
          </mxGeometry>
        </mxCell>
        <mxCell id="llS7omPs3QPFBOIF4OHb-25" value="" style="endArrow=block;html=1;rounded=0;fillColor=#60a917;strokeColor=#CC0066;strokeWidth=6;endFill=1;" edge="1" parent="1">
          <mxGeometry width="50" height="50" relative="1" as="geometry">
            <mxPoint x="1927" y="782.5" as="sourcePoint" />
            <mxPoint x="1837" y="782.5" as="targetPoint" />
          </mxGeometry>
        </mxCell>
        <mxCell id="llS7omPs3QPFBOIF4OHb-27" value="" style="endArrow=block;html=1;rounded=0;fillColor=#60a917;strokeColor=#CC0066;strokeWidth=6;endFill=1;" edge="1" parent="1">
          <mxGeometry width="50" height="50" relative="1" as="geometry">
            <mxPoint x="1837" y="822.5" as="sourcePoint" />
            <mxPoint x="1927" y="822.5" as="targetPoint" />
          </mxGeometry>
        </mxCell>
        <mxCell id="llS7omPs3QPFBOIF4OHb-28" value="" style="endArrow=block;html=1;rounded=0;fillColor=#60a917;strokeColor=#2D7600;strokeWidth=10;endFill=1;" edge="1" parent="1">
          <mxGeometry width="50" height="50" relative="1" as="geometry">
            <mxPoint x="1630" y="695" as="sourcePoint" />
            <mxPoint x="560" y="690" as="targetPoint" />
          </mxGeometry>
        </mxCell>
        <mxCell id="llS7omPs3QPFBOIF4OHb-29" value="" style="endArrow=none;html=1;rounded=0;fillColor=#60a917;strokeColor=#2D7600;strokeWidth=10;endFill=0;" edge="1" parent="1">
          <mxGeometry width="50" height="50" relative="1" as="geometry">
            <mxPoint x="1631.6" y="537.5" as="sourcePoint" />
            <mxPoint x="1631.6" y="700" as="targetPoint" />
          </mxGeometry>
        </mxCell>
        <mxCell id="llS7omPs3QPFBOIF4OHb-30" value="&lt;font color=&quot;#00331a&quot; style=&quot;font-size: 13px;&quot;&gt;HttpStatus.OK - 200&lt;br style=&quot;font-size: 13px;&quot;&gt;HttpStatus.CREATED - 201&lt;br style=&quot;font-size: 13px;&quot;&gt;HttpStatus.ACCEPTED - 202&lt;br style=&quot;font-size: 13px;&quot;&gt;&lt;/font&gt;" style="rounded=1;whiteSpace=wrap;html=1;fillColor=none;fontColor=#ffffff;strokeColor=none;align=left;fontSize=13;fontStyle=1" vertex="1" parent="1">
          <mxGeometry x="1390" y="640" width="207" height="40" as="geometry" />
        </mxCell>
        <mxCell id="llS7omPs3QPFBOIF4OHb-33" value="&lt;font color=&quot;#00331a&quot; style=&quot;font-size: 13px;&quot;&gt;HttpStatus.NO_CONTENT - 204&lt;br style=&quot;font-size: 13px;&quot;&gt;HttpStatus.BAD_REQUEST - 400&lt;br style=&quot;font-size: 13px;&quot;&gt;HttpStatus.UNAUTHORIZED - 401&lt;br style=&quot;font-size: 13px;&quot;&gt;HttpStatus.NOT_FOUND - 404&lt;br style=&quot;font-size: 13px;&quot;&gt;HttpStatus.REQUEST_TIMEOUT - 408&lt;br style=&quot;font-size: 13px;&quot;&gt;&lt;/font&gt;" style="rounded=1;whiteSpace=wrap;html=1;fillColor=none;fontColor=#ffffff;strokeColor=none;labelBorderColor=none;spacing=2;spacingBottom=3;verticalAlign=middle;align=left;fontSize=13;fontStyle=1" vertex="1" parent="1">
          <mxGeometry x="1090" y="710" width="270" height="82.5" as="geometry" />
        </mxCell>
        <mxCell id="J2l2GyL0rl8SyRab868N-1" value="" style="endArrow=block;html=1;rounded=0;fillColor=#60a917;strokeColor=#2D7600;strokeWidth=6;endFill=1;" edge="1" parent="1">
          <mxGeometry width="50" height="50" relative="1" as="geometry">
            <mxPoint x="1917" y="530" as="sourcePoint" />
            <mxPoint x="1747" y="530" as="targetPoint" />
          </mxGeometry>
        </mxCell>
        <mxCell id="J2l2GyL0rl8SyRab868N-2" value="" style="endArrow=block;html=1;rounded=0;fillColor=#60a917;strokeColor=#006666;strokeWidth=6;endFill=1;" edge="1" parent="1">
          <mxGeometry width="50" height="50" relative="1" as="geometry">
            <mxPoint x="1966" y="765" as="sourcePoint" />
            <mxPoint x="1966" y="555" as="targetPoint" />
          </mxGeometry>
        </mxCell>
        <mxCell id="nnmazYxCTnmq1WP2z6X8-2" value="&lt;font color=&quot;#00331a&quot;&gt;Request Object&lt;br&gt;Data Transfer Object&lt;br&gt;&lt;/font&gt;" style="rounded=1;whiteSpace=wrap;html=1;fillColor=none;fontColor=#ffffff;strokeColor=none;" vertex="1" parent="1">
          <mxGeometry x="1190" y="442.5" width="160" height="30" as="geometry" />
        </mxCell>
        <mxCell id="nnmazYxCTnmq1WP2z6X8-5" value="" style="edgeStyle=orthogonalEdgeStyle;rounded=0;orthogonalLoop=1;jettySize=auto;html=1;" edge="1" parent="1" source="nnmazYxCTnmq1WP2z6X8-3" target="nnmazYxCTnmq1WP2z6X8-4">
          <mxGeometry relative="1" as="geometry" />
        </mxCell>
        <mxCell id="nnmazYxCTnmq1WP2z6X8-3" value="&lt;font style=&quot;font-size: 20px;&quot;&gt;JSON objects&lt;/font&gt;" style="rounded=1;whiteSpace=wrap;html=1;fillColor=#dae8fc;strokeColor=#6c8ebf;" vertex="1" parent="1">
          <mxGeometry x="990" y="482.5" width="160" height="45" as="geometry" />
        </mxCell>
        <mxCell id="nnmazYxCTnmq1WP2z6X8-4" value="&lt;font style=&quot;font-size: 20px;&quot;&gt;RequestObject&lt;/font&gt;" style="rounded=1;whiteSpace=wrap;html=1;fillColor=#d5e8d4;strokeColor=#82b366;" vertex="1" parent="1">
          <mxGeometry x="1190" y="482.5" width="160" height="45" as="geometry" />
        </mxCell>
        <mxCell id="nnmazYxCTnmq1WP2z6X8-6" value="" style="rounded=1;whiteSpace=wrap;html=1;fillColor=none;strokeColor=#9673a6;arcSize=4;" vertex="1" parent="1">
          <mxGeometry x="980" y="380" width="400" height="240" as="geometry" />
        </mxCell>
        <mxCell id="nnmazYxCTnmq1WP2z6X8-7" value="&lt;font color=&quot;#00331a&quot; style=&quot;font-size: 14px;&quot;&gt;Data Validation:&lt;br style=&quot;font-size: 14px;&quot;&gt;@NotBlank, @NotNull, @Pattern&lt;br style=&quot;font-size: 14px;&quot;&gt;&lt;/font&gt;" style="rounded=1;whiteSpace=wrap;html=1;fillColor=none;fontColor=#ffffff;strokeColor=none;fontSize=14;fontStyle=1" vertex="1" parent="1">
          <mxGeometry x="1055" y="390" width="250" height="30" as="geometry" />
        </mxCell>
        <mxCell id="6uDZv4sGKnMwtpJIftTi-1" value="&lt;font style=&quot;font-size: 20px;&quot;&gt;Frontend&lt;br&gt;Chrome,&lt;br&gt;Mobile App&lt;br&gt;&lt;/font&gt;" style="rounded=1;whiteSpace=wrap;html=1;fillColor=#d5e8d4;strokeColor=#82b366;" vertex="1" parent="1">
          <mxGeometry x="410" y="380" width="120" height="442" as="geometry" />
        </mxCell>
        <mxCell id="6uDZv4sGKnMwtpJIftTi-2" value="&lt;font style=&quot;font-size: 20px;&quot;&gt;Frontend&lt;br&gt;Chrome,&lt;br&gt;Mobile App&lt;br&gt;&lt;/font&gt;" style="rounded=1;whiteSpace=wrap;html=1;fillColor=#d5e8d4;strokeColor=#82b366;" vertex="1" parent="1">
          <mxGeometry x="410" y="1000" width="120" height="480" as="geometry" />
        </mxCell>
        <mxCell id="6uDZv4sGKnMwtpJIftTi-4" value="" style="endArrow=block;html=1;rounded=0;fillColor=#60a917;strokeColor=#2D7600;strokeWidth=10;endFill=1;" edge="1" parent="1">
          <mxGeometry width="50" height="50" relative="1" as="geometry">
            <mxPoint x="550" y="1160.5" as="sourcePoint" />
            <mxPoint x="640" y="1161.3" as="targetPoint" />
          </mxGeometry>
        </mxCell>
        <mxCell id="6uDZv4sGKnMwtpJIftTi-5" value="&lt;font style=&quot;font-size: 20px;&quot;&gt;JwtAuthFilter&lt;/font&gt;" style="rounded=1;whiteSpace=wrap;html=1;fillColor=#fa6800;fontColor=default;strokeColor=#C73500;" vertex="1" parent="1">
          <mxGeometry x="650" y="1000" width="150" height="330" as="geometry" />
        </mxCell>
        <mxCell id="6uDZv4sGKnMwtpJIftTi-6" value="" style="endArrow=classic;html=1;rounded=0;fillColor=#e51400;strokeColor=#B20000;strokeWidth=2;exitX=0.5;exitY=0;exitDx=0;exitDy=0;" edge="1" parent="1" source="6uDZv4sGKnMwtpJIftTi-5">
          <mxGeometry width="50" height="50" relative="1" as="geometry">
            <mxPoint x="754" y="910" as="sourcePoint" />
            <mxPoint x="470" y="990" as="targetPoint" />
            <Array as="points">
              <mxPoint x="725" y="930" />
              <mxPoint x="470" y="930" />
            </Array>
          </mxGeometry>
        </mxCell>
        <mxCell id="6uDZv4sGKnMwtpJIftTi-7" value="&lt;font color=&quot;#00331a&quot;&gt;Blank JWT&lt;/font&gt;" style="rounded=1;whiteSpace=wrap;html=1;fillColor=none;fontColor=#ffffff;strokeColor=none;" vertex="1" parent="1">
          <mxGeometry x="510" y="900" width="160" height="30" as="geometry" />
        </mxCell>
        <mxCell id="6uDZv4sGKnMwtpJIftTi-8" value="&lt;font&gt;HttpStatus-403&lt;/font&gt;" style="rounded=1;whiteSpace=wrap;html=1;fillColor=none;fontColor=#FF3333;strokeColor=none;fontStyle=1" vertex="1" parent="1">
          <mxGeometry x="340" y="950" width="160" height="30" as="geometry" />
        </mxCell>
        <mxCell id="6uDZv4sGKnMwtpJIftTi-9" value="&lt;font style=&quot;font-size: 20px;&quot;&gt;JwtService&lt;/font&gt;" style="rounded=1;whiteSpace=wrap;html=1;fillColor=#fff2cc;strokeColor=#d6b656;" vertex="1" parent="1">
          <mxGeometry x="920" y="1020" width="150" height="100" as="geometry" />
        </mxCell>
        <mxCell id="6uDZv4sGKnMwtpJIftTi-10" value="" style="endArrow=block;html=1;rounded=0;fillColor=#60a917;strokeColor=#2D7600;strokeWidth=10;endFill=1;" edge="1" parent="1">
          <mxGeometry width="50" height="50" relative="1" as="geometry">
            <mxPoint x="820" y="1070" as="sourcePoint" />
            <mxPoint x="910" y="1070.8" as="targetPoint" />
          </mxGeometry>
        </mxCell>
        <mxCell id="6uDZv4sGKnMwtpJIftTi-11" value="&lt;font color=&quot;#00331a&quot;&gt;Validate JWT&lt;/font&gt;" style="rounded=1;whiteSpace=wrap;html=1;fillColor=none;fontColor=#ffffff;strokeColor=none;" vertex="1" parent="1">
          <mxGeometry x="910" y="1120" width="160" height="30" as="geometry" />
        </mxCell>
        <mxCell id="6uDZv4sGKnMwtpJIftTi-12" value="" style="endArrow=classic;html=1;rounded=0;fillColor=#e51400;strokeColor=#B20000;strokeWidth=2;exitX=0.5;exitY=0;exitDx=0;exitDy=0;" edge="1" parent="1" source="6uDZv4sGKnMwtpJIftTi-9">
          <mxGeometry width="50" height="50" relative="1" as="geometry">
            <mxPoint x="735" y="1010" as="sourcePoint" />
            <mxPoint x="480" y="990" as="targetPoint" />
            <Array as="points">
              <mxPoint x="995" y="940" />
              <mxPoint x="480" y="940" />
            </Array>
          </mxGeometry>
        </mxCell>
        <mxCell id="6uDZv4sGKnMwtpJIftTi-13" value="&lt;font color=&quot;#00331a&quot;&gt;Invalid JWT&lt;/font&gt;" style="rounded=1;whiteSpace=wrap;html=1;fillColor=none;fontColor=#ffffff;strokeColor=none;" vertex="1" parent="1">
          <mxGeometry x="740" y="910" width="160" height="30" as="geometry" />
        </mxCell>
        <mxCell id="6uDZv4sGKnMwtpJIftTi-14" value="" style="endArrow=block;html=1;rounded=0;fillColor=#60a917;strokeColor=#2D7600;strokeWidth=10;endFill=1;" edge="1" parent="1">
          <mxGeometry width="50" height="50" relative="1" as="geometry">
            <mxPoint x="1080" y="1069.5" as="sourcePoint" />
            <mxPoint x="1170" y="1070.3" as="targetPoint" />
          </mxGeometry>
        </mxCell>
        <mxCell id="6uDZv4sGKnMwtpJIftTi-16" value="&lt;font style=&quot;font-size: 20px;&quot;&gt;Update SecurityContextHolder&lt;/font&gt;" style="rounded=1;whiteSpace=wrap;html=1;fillColor=#60a917;strokeColor=#2D7600;fontColor=#ffffff;" vertex="1" parent="1">
          <mxGeometry x="1190" y="1020" width="230" height="100" as="geometry" />
        </mxCell>
        <mxCell id="6uDZv4sGKnMwtpJIftTi-17" value="" style="rounded=1;whiteSpace=wrap;html=1;fillColor=#1ba1e2;strokeColor=#006EAF;fontColor=#ffffff;arcSize=50;" vertex="1" parent="1">
          <mxGeometry x="1537" y="1035" width="73" height="70" as="geometry" />
        </mxCell>
        <mxCell id="6uDZv4sGKnMwtpJIftTi-18" value="" style="endArrow=block;html=1;rounded=0;fillColor=#60a917;strokeColor=#2D7600;strokeWidth=10;endFill=1;" edge="1" parent="1">
          <mxGeometry width="50" height="50" relative="1" as="geometry">
            <mxPoint x="1437" y="1069.5" as="sourcePoint" />
            <mxPoint x="1527" y="1070.3" as="targetPoint" />
          </mxGeometry>
        </mxCell>
        <mxCell id="6uDZv4sGKnMwtpJIftTi-19" value="&lt;font color=&quot;#00331a&quot;&gt;Dispatcher Servlet&lt;/font&gt;" style="rounded=1;whiteSpace=wrap;html=1;fillColor=none;fontColor=#ffffff;strokeColor=none;" vertex="1" parent="1">
          <mxGeometry x="1493.5" y="990" width="160" height="30" as="geometry" />
        </mxCell>
        <mxCell id="6uDZv4sGKnMwtpJIftTi-20" value="" style="endArrow=block;html=1;rounded=0;fillColor=#60a917;strokeColor=#2D7600;strokeWidth=5;endFill=1;" edge="1" parent="1">
          <mxGeometry width="50" height="50" relative="1" as="geometry">
            <mxPoint x="1570" y="1410" as="sourcePoint" />
            <mxPoint x="530" y="1404.5" as="targetPoint" />
          </mxGeometry>
        </mxCell>
        <mxCell id="6uDZv4sGKnMwtpJIftTi-21" value="" style="endArrow=none;html=1;rounded=0;fillColor=#60a917;strokeColor=#2D7600;strokeWidth=5;endFill=0;" edge="1" parent="1">
          <mxGeometry width="50" height="50" relative="1" as="geometry">
            <mxPoint x="1572" y="1110" as="sourcePoint" />
            <mxPoint x="1571.6" y="1412.5" as="targetPoint" />
          </mxGeometry>
        </mxCell>
        <mxCell id="6uDZv4sGKnMwtpJIftTi-22" value="&lt;font color=&quot;#006600&quot;&gt;HttpStatus-200&lt;/font&gt;" style="rounded=1;whiteSpace=wrap;html=1;fillColor=none;fontColor=#FF3333;strokeColor=none;fontStyle=1" vertex="1" parent="1">
          <mxGeometry x="530" y="1370" width="160" height="30" as="geometry" />
        </mxCell>
        <mxCell id="6uDZv4sGKnMwtpJIftTi-23" value="&lt;font color=&quot;#006600&quot;&gt;JSON&lt;/font&gt;" style="rounded=1;whiteSpace=wrap;html=1;fillColor=none;fontColor=#FF3333;strokeColor=none;fontStyle=1" vertex="1" parent="1">
          <mxGeometry x="930" y="1370" width="160" height="30" as="geometry" />
        </mxCell>
        <mxCell id="Nlpay5NyK1JVF12sI-AN-1" value="&lt;span style=&quot;font-size: 20px;&quot;&gt;Model&lt;/span&gt;" style="rounded=1;whiteSpace=wrap;html=1;fillColor=#a20025;strokeColor=#6F0000;fontColor=#ffffff;" vertex="1" parent="1">
          <mxGeometry x="1710" y="770" width="100" height="67.5" as="geometry" />
        </mxCell>
        <mxCell id="coj4zH-bI5ZBRIY0yJqz-1" value="&lt;font color=&quot;#00331a&quot; style=&quot;font-size: 14px;&quot;&gt;@RestController&lt;/font&gt;" style="rounded=1;whiteSpace=wrap;html=1;fillColor=none;fontColor=#ffffff;strokeColor=none;fontStyle=1;fontSize=14;" vertex="1" parent="1">
          <mxGeometry x="1582" y="430" width="100" height="30" as="geometry" />
        </mxCell>
        <mxCell id="O3E_1qvavz6VtICaqAGE-1" value="&lt;font color=&quot;#00331a&quot; style=&quot;font-size: 13px;&quot;&gt;Parameters: &lt;span style=&quot;font-weight: normal;&quot;&gt;@RequestParam,@PathVariable,&lt;br&gt;&lt;/span&gt;object ?&lt;br style=&quot;font-size: 13px;&quot;&gt;&lt;/font&gt;" style="rounded=1;whiteSpace=wrap;html=1;fillColor=none;fontColor=#ffffff;strokeColor=none;align=left;fontSize=13;fontStyle=1" vertex="1" parent="1">
          <mxGeometry x="749" y="310" width="207" height="50" as="geometry" />
        </mxCell>
        <mxCell id="JT3ThfTVsHlscBHciZuW-1" value="&lt;font color=&quot;#00331a&quot; style=&quot;font-size: 14px;&quot;&gt;Dependency Injection&lt;/font&gt;" style="rounded=1;whiteSpace=wrap;html=1;fillColor=none;fontColor=#ffffff;strokeColor=none;fontSize=14;fontStyle=1" vertex="1" parent="1">
          <mxGeometry x="2100" y="640" width="100" height="30" as="geometry" />
        </mxCell>
      </root>
    </mxGraphModel>
  </diagram>
</mxfile>
